<?xml version="1.0" encoding="UTF-8"?>
<svg id="Capa_2" xmlns="http://www.w3.org/2000/svg" xmlns:xlink="http://www.w3.org/1999/xlink" viewBox="0 0 221.94 221.94">
  <defs>
    <style>
      .cls-1 {
        font-family: GalanoGrotesque-Regular, GalanoGrotesque-Regular;
        font-size: 37.05px;
      }

      .cls-1, .cls-2 {
        fill: #fff;
      }

      .cls-3 {
        fill: url(#Degradado_sin_nombre_2);
      }

      .cls-4 {
        letter-spacing: -.01em;
      }
    </style>
    <linearGradient id="Degradado_sin_nombre_2" data-name="Degradado sin nombre 2" x1="-12.44" y1="16.2" x2="234.38" y2="205.75" gradientUnits="userSpaceOnUse">
      <stop offset="0" stop-color="#297fe2"/>
      <stop offset="1" stop-color="#2bf9e4"/>
    </linearGradient>
  </defs>
  <g id="Capa_1-2" data-name="Capa_1">
    <rect class="cls-3" width="221.94" height="221.94"/>
    <path class="cls-2" d="M166.23,70.58v-.05h-1.65s0,0,0,0c-2.38-25.44-24.33-45.38-51.06-45.38s-48.68,19.93-51.06,45.38c0,0,0,0,0,0h-.55c-17.37.42-31.33,14.77-31.33,32.43s13.96,32.01,31.33,32.41h0s.14,0,.14,0c.2,0,.4.02.6.02s.4-.01.6-.02h42.15v-29.69h-30.25l46.5-58.27v42.04h30.25l-36.64,45.92h48.54c.2,0,.4.02.6.02s.4-.01.6-.02h1.24v-.04c16.86-.97,30.23-15.09,30.23-32.37s-13.37-31.41-30.23-32.37Z"/>
    <g>
      <path class="cls-2" d="M48.44,163.6c1.26,1.37,1.89,3.24,1.89,5.61v11.67h-7.45v-10.08c0-.79-.22-1.43-.67-1.91-.44-.48-1.01-.72-1.7-.72-.84,0-1.5.3-1.98.89-.48.59-.72,1.43-.72,2.52v9.3h-7.45v-18.78h7.45v1.96c1.53-1.68,3.38-2.52,5.56-2.52s3.82.69,5.08,2.06Z"/>
      <path class="cls-2" d="M73.15,180.92h-7.45v-1.96c-1.53,1.68-3.38,2.52-5.56,2.52s-3.82-.69-5.08-2.06c-1.26-1.37-1.89-3.24-1.89-5.61v-11.67h7.45v10.08c0,.79.22,1.43.67,1.91.44.48,1.01.72,1.7.72.84,0,1.5-.3,1.98-.89.48-.59.72-1.43.72-2.52v-9.3h7.45v18.78Z"/>
      <path class="cls-2" d="M90.88,180.89h-7.37l-7.71-18.78h7.74l3.63,9.78,3.63-9.78h7.78l-7.71,18.78Z"/>
      <path class="cls-2" d="M116.52,164.36c2.05,1.85,3.08,4.24,3.08,7.15s-1.03,5.3-3.08,7.15-4.54,2.78-7.48,2.78-5.47-.93-7.52-2.78-3.07-4.24-3.07-7.15,1.02-5.3,3.07-7.15c2.05-1.85,4.56-2.78,7.52-2.78s5.43.93,7.48,2.78ZM111.46,174.16c.65-.73.98-1.61.98-2.65s-.33-1.96-.98-2.69c-.65-.73-1.46-1.09-2.43-1.09s-1.81.36-2.46,1.09c-.65.73-.98,1.62-.98,2.69s.33,1.92.98,2.65c.65.73,1.48,1.09,2.46,1.09s1.77-.36,2.43-1.09Z"/>
      <path class="cls-2" d="M121.77,180.89v-26.68h7.45v26.68h-7.45Z"/>
    </g>
    <text class="cls-1" transform="translate(131.89 180.89)"><tspan class="cls-4" x="0" y="0">.</tspan><tspan x="7" y="0">cat</tspan></text>
  </g>
</svg>